<?xml version="1.0" encoding="utf-8"?>
<!-- Generator: Adobe Illustrator 22.1.0, SVG Export Plug-In . SVG Version: 6.00 Build 0)  -->
<svg version="1.1" id="Warstwa_1" xmlns="http://www.w3.org/2000/svg" xmlns:xlink="http://www.w3.org/1999/xlink" x="0px" y="0px"
	 viewBox="0 0 48 48" style="enable-background:new 0 0 48 48;" xml:space="preserve">
<title>play</title>
<path d="M19.5,19.2c0.3-0.2,0.6-0.2,0.9,0l3,1.4c0.5,0.3,1.1,0.1,1.3-0.4c0.3-0.5,0.1-1.1-0.4-1.3c0,0,0,0,0,0l-3-1.4
	c-0.9-0.4-2-0.4-2.8,0.2C17.5,18.1,17,19,17,20.1v9.7c0,1,0.5,2,1.4,2.6c0.5,0.3,1,0.4,1.5,0.4c0.4,0,0.9-0.1,1.3-0.3l10-4.8
	c1.5-0.7,2.1-2.5,1.4-4.1c-0.3-0.6-0.8-1.1-1.4-1.4l-2.8-1.3c-0.5-0.3-1.1-0.2-1.4,0.3c-0.3,0.5-0.2,1.1,0.3,1.4
	c0.1,0,0.1,0.1,0.2,0.1l2.8,1.4c0.4,0.2,0.6,0.5,0.6,0.9c0,0.4-0.2,0.8-0.6,0.9l-10,4.8c-0.3,0.1-0.6,0.1-0.9,0
	c-0.3-0.2-0.5-0.5-0.5-0.9v-9.7C19,19.7,19.2,19.4,19.5,19.2z"/>
<path d="M40.5,6.5c-0.4-0.4-1-0.4-1.4,0.1c-0.4,0.4-0.4,1,0,1.4c4.4,4.1,6.9,9.9,6.9,16c0,12.2-9.9,22-22,22C11.8,46,2,36.1,2,24
	S11.9,2,24,2c3.1,0,6.2,0.7,9,2c0.5,0.2,1.1-0.1,1.3-0.6c0.2-0.5,0-1-0.5-1.2C30.8,0.7,27.4,0,24,0C10.7,0,0,10.7,0,24
	s10.7,24,24,24c13.3,0,24-10.7,24-24C48,17.4,45.3,11.1,40.5,6.5z"/>
</svg>
