<?xml version="1.0" encoding="utf-8"?>
<!-- Generator: Adobe Illustrator 22.1.0, SVG Export Plug-In . SVG Version: 6.00 Build 0)  -->
<svg version="1.1" id="Warstwa_1" xmlns="http://www.w3.org/2000/svg" xmlns:xlink="http://www.w3.org/1999/xlink" x="0px" y="0px"
	 viewBox="0 0 48 48" style="enable-background:new 0 0 48 48;" xml:space="preserve">
<title>pause</title>
<path d="M40.5,6.5c-0.4-0.4-1-0.4-1.4,0.1c-0.4,0.4-0.4,1,0,1.4c4.4,4.1,6.9,9.9,6.9,16c0,12.2-9.9,22-22,22C11.8,46,2,36.1,2,24
	S11.9,2,24,2c3.1,0,6.2,0.7,9,2c0.5,0.2,1.1-0.1,1.3-0.6c0.2-0.5,0-1-0.5-1.2C30.8,0.7,27.4,0,24,0C10.7,0,0,10.7,0,24
	s10.7,24,24,24c13.3,0,24-10.7,24-24C48,17.4,45.3,11.1,40.5,6.5z"/>
<path d="M19,17v14c0,0.6,0.4,1,1,1s1-0.4,1-1V17c0-0.6-0.4-1-1-1S19,16.4,19,17z"/>
<path d="M28,24c-0.6,0-1,0.4-1,1v6c0,0.6,0.4,1,1,1s1-0.4,1-1v-6C29,24.4,28.6,24,28,24z"/>
<path d="M29,17c0-0.6-0.4-1-1-1s-1,0.4-1,1v4c0,0.6,0.4,1,1,1s1-0.4,1-1V17z"/>
</svg>
