<?xml version="1.0" encoding="utf-8"?>
<!-- Generator: Adobe Illustrator 23.0.0, SVG Export Plug-In . SVG Version: 6.00 Build 0)  -->
<svg version="1.1" id="Warstwa_1" xmlns="http://www.w3.org/2000/svg" xmlns:xlink="http://www.w3.org/1999/xlink" x="0px" y="0px"
	 viewBox="0 0 48 48" style="enable-background:new 0 0 48 48;" xml:space="preserve">
<title>stop</title>
<g>
	<path d="M40.4,6.6L40.4,6.6c-0.4-0.4-1-0.4-1.4,0c-0.4,0.4-0.4,1,0,1.4c4.4,4.1,6.9,9.9,6.9,16c0,12.1-9.8,22-21.9,22
		c-12.1,0-22-9.8-22-21.9C2,12,11.8,2.1,24,2.1c3.1,0,6.2,0.7,9.1,1.9c0.5,0.2,1.1,0,1.3-0.5c0.2-0.5,0-1.1-0.5-1.3
		C21.8-3.2,7.6,2.1,2.1,14.2C-3.4,26.2,1.9,40.5,14,45.9c12.1,5.5,26.3,0.1,31.8-11.9C50,24.7,47.9,13.7,40.4,6.6z"/>
	<path d="M31,22.9c0.6,0,1-0.4,1-1V20c0-1.7-1.3-3-3-3H19c-1.7,0-3,1.3-3,3v10c0,1.7,1.3,3,3,3h10c1.7,0,3-1.3,3-3v-3
		c0-0.6-0.4-1-1-1c-0.6,0-1,0.4-1,1v3c0,0.6-0.4,1-1,1H19c-0.6,0-1-0.4-1-1V20c0-0.6,0.4-1,1-1h10c0.6,0,1,0.4,1,1v1.9
		C30,22.4,30.4,22.9,31,22.9z"/>
</g>
</svg>
